<svg width="19" height="20" viewBox="0 0 19 20" fill="none" xmlns="http://www.w3.org/2000/svg">
<path fill-rule="evenodd" clip-rule="evenodd" d="M12.4298 7.82037C12.4298 10.8696 10.0986 13.1407 7.4649 13.1407C4.83119 13.1407 2.5 10.8696 2.5 7.82037C2.5 4.77114 4.83119 2.5 7.4649 2.5C10.0986 2.5 12.4298 4.77114 12.4298 7.82037ZM11.4361 14.4435C10.286 15.202 8.92435 15.6407 7.4649 15.6407C3.34215 15.6407 0 12.1394 0 7.82037C0 3.5013 3.34215 0 7.4649 0C11.5877 0 14.9298 3.5013 14.9298 7.82037C14.9298 9.68599 14.3062 11.399 13.2655 12.7432L17.4367 17.1131L18.2998 18.0173L16.5737 19.8256L15.7106 18.9214L11.4361 14.4435Z" fill="#2E2E32"/>
</svg>
