<svg width="26" height="26" viewBox="0 0 26 26" fill="none" xmlns="http://www.w3.org/2000/svg">
<path d="M1.83335 6.53833H24.5001" stroke="#4664A4" stroke-width="2" stroke-linecap="round" stroke-linejoin="round"/>
<path d="M4.35171 6.53833H21.9814V23.1538C21.9814 23.6435 21.775 24.1131 21.4077 24.4593C21.0404 24.8054 20.5421 25 20.0226 25H6.31057C5.79104 25 5.2928 24.8054 4.92544 24.4593C4.55809 24.1131 4.35171 23.6435 4.35171 23.1538V6.53833Z" stroke="#4664A4" stroke-width="2" stroke-linecap="round" stroke-linejoin="round"/>
<path d="M8.12983 6.53851V5.61542C8.12983 4.39134 8.65083 3.21738 9.57821 2.35182C10.5056 1.48627 11.7634 1 13.0749 1C14.3864 1 15.6443 1.48627 16.5716 2.35182C17.499 3.21738 18.02 4.39134 18.02 5.61542V6.53851" stroke="#4664A4" stroke-width="2" stroke-linecap="round" stroke-linejoin="round"/>
<path d="M10.0185 12.0796V19.4671" stroke="#4664A4" stroke-width="2" stroke-linecap="square" stroke-linejoin="round"/>
<path d="M16.315 12.0796V19.4671" stroke="#4664A4" stroke-width="2" stroke-linecap="square" stroke-linejoin="round"/>
</svg>
